<svg width="32" height="22" viewBox="0 0 32 22" fill="none" xmlns="http://www.w3.org/2000/svg">
    <g clip-path="url(#clip0_75_21)">
    <path d="M9.26069 0.000460877C10.1252 -0.016277 10.9884 0.0761476 11.8316 0.275719C12.5415 0.437352 13.2155 0.738126 13.8178 1.16205C14.374 1.58359 14.8142 2.15032 15.094 2.80534C15.4156 3.6108 15.5707 4.4779 15.5493 5.3501C15.5858 6.30779 15.3513 7.25551 14.8749 8.07516C14.3738 8.84929 13.681 9.46754 12.8702 9.86433C13.9705 10.1737 14.929 10.8823 15.5731 11.8627C16.1914 12.9015 16.5022 14.1075 16.4665 15.3296C16.4869 16.304 16.2937 17.2704 15.9017 18.1551C15.5393 18.9269 15.0087 19.5995 14.3523 20.1191C13.6765 20.6329 12.9161 21.0131 12.1087 21.2407C11.2715 21.4823 10.4065 21.6036 9.53784 21.6013H0V0.000460877H9.26069ZM8.71036 8.73715C9.38958 8.76635 10.0582 8.55431 10.6068 8.13571C10.8696 7.89178 11.074 7.58713 11.2037 7.24612C11.3334 6.9051 11.3848 6.53718 11.3538 6.17175C11.3714 5.74494 11.2899 5.32001 11.1163 4.93309C10.969 4.62502 10.7399 4.36754 10.4564 4.19126C10.1692 3.99723 9.84655 3.86742 9.50881 3.81003C9.14235 3.736 8.76946 3.70233 8.39626 3.70956H4.32086V8.75642H8.71036V8.73715ZM8.94791 17.9335C9.35868 17.9393 9.7686 17.8931 10.1687 17.7959C10.5343 17.7117 10.8811 17.5552 11.1902 17.3348C11.493 17.1146 11.7377 16.8183 11.9015 16.4733C12.0915 16.0334 12.1788 15.5527 12.1562 15.0708C12.1974 14.6317 12.1416 14.1885 11.9932 13.7753C11.8447 13.3621 11.6075 12.9899 11.2997 12.6871C10.6474 12.186 9.8479 11.9378 9.03897 11.9852H4.32086V17.9335H8.94791Z" fill="#EBDBB1"/>
    <path d="M22.6205 17.8531C22.9597 18.1809 23.3592 18.4334 23.7948 18.5952C24.2303 18.7571 24.6929 18.8248 25.1544 18.7945C25.886 18.8138 26.6034 18.5816 27.1961 18.1339C27.6782 17.8069 28.0433 17.3231 28.2347 16.7576H31.6806C31.3135 18.3676 30.4169 19.7925 29.1467 20.7846C27.9282 21.628 26.4882 22.0552 25.0264 22.0067C23.9831 22.021 22.9478 21.8165 21.9818 21.4053C21.1079 21.0253 20.3242 20.4508 19.6854 19.7221C19.049 18.9585 18.5601 18.0739 18.2455 17.1168C17.8925 16.047 17.7197 14.9216 17.7348 13.7903C17.7284 12.678 17.907 11.573 18.2627 10.5244C18.7406 9.04913 19.6543 7.7697 20.8728 6.86967C22.0913 5.96964 23.5518 5.49528 25.0449 5.51466C26.1472 5.49064 27.2372 5.75966 28.2123 6.29639C29.0937 6.8004 29.854 7.50623 30.4361 8.36083C31.0315 9.25756 31.4583 10.264 31.6938 11.3267C31.9521 12.4679 32.0442 13.6431 31.967 14.8129H21.7033C21.6201 15.9119 21.9489 17.0017 22.6205 17.8531ZM27.1235 9.63803C26.8363 9.33844 26.4908 9.10652 26.1104 8.9579C25.73 8.80929 25.3235 8.74742 24.9182 8.77647C24.3805 8.75509 23.8467 8.87932 23.3688 9.13706C22.9899 9.35458 22.6555 9.64725 22.3843 9.99862C22.144 10.328 21.9649 10.7015 21.8564 11.0996C21.7586 11.4317 21.6975 11.7743 21.6743 12.1209H28.0315C27.9761 11.2175 27.6606 10.3527 27.1261 9.6394L27.1235 9.63803Z" fill="#EBDBB1"/>
    <path d="M28.8205 1.44238H20.8545V3.566H28.8205V1.44238Z" fill="#EBDBB1"/>
    </g>
    <defs>
    <clipPath id="clip0_75_21">
    <rect width="32" height="22" fill="white"/>
    </clipPath>
    </defs>
</svg>
