<svg width="553" height="263" viewBox="0 0 553 263" fill="none" xmlns="http://www.w3.org/2000/svg">
    <g clip-path="url(#clip0_62_58)">
    <path d="M285.4 126L311.7 124.3C312.3 128.6 313.4 131.8 315.2 134.1C318.1 137.7 322.1 139.5 327.4 139.5C331.3 139.5 334.4 138.6 336.5 136.7C338.5 135.2 339.7 132.8 339.7 130.3C339.7 127.9 338.6 125.6 336.7 124.1C334.7 122.3 330 120.5 322.6 118.9C310.5 116.2 301.8 112.6 296.7 108C291.6 103.7 288.7 97.4001 288.9 90.7001C288.9 86.1001 290.3 81.5001 292.9 77.7001C295.9 73.4001 300 70.0001 304.9 68.1001C310.2 65.8001 317.6 64.6001 326.9 64.6001C338.3 64.6001 347 66.7001 353 71.0001C359 75.2001 362.6 82.0001 363.7 91.3001L337.7 92.8001C337 88.8001 335.6 85.9001 333.3 84.0001C331 82.1001 328 81.2001 324.1 81.2001C320.9 81.2001 318.5 81.9001 316.9 83.2001C315.4 84.4001 314.4 86.2001 314.5 88.2001C314.5 89.7001 315.3 91.1001 316.5 92.0001C317.8 93.2001 320.9 94.3001 325.8 95.3001C337.9 97.9001 346.5 100.5 351.8 103.2C357.1 105.9 360.9 109.2 363.2 113.1C365.6 117.1 366.8 121.7 366.7 126.4C366.7 132 365.1 137.6 361.9 142.3C358.6 147.2 354 151 348.6 153.3C342.9 155.8 335.7 157.1 327.1 157.1C311.9 157.1 301.4 154.2 295.5 148.3C289.6 142.4 286.1 135 285.4 126ZM6.3 155.6V66.2001H52.4C60.9 66.2001 67.5 66.9001 72 68.4001C76.4 69.8001 80.3 72.7001 82.9 76.6001C85.8 80.9001 87.2 85.9001 87.1 91.1001C87.4 99.9001 82.9 108.3 75.2 112.7C72.2 114.4 68.9 115.6 65.5 116.2C68 116.9 70.5 118.1 72.7 119.5C74.4 120.9 75.8 122.5 77.1 124.2C78.6 125.9 79.9 127.8 81 129.8L94.4 155.7H63L48.2 128.2C46.3 124.7 44.7 122.4 43.2 121.3C41.2 119.9 38.8 119.2 36.4 119.2H34V155.5H6.3V155.6ZM34 102.4H45.7C48.2 102.2 50.6 101.8 53 101.2C54.8 100.9 56.4 99.9001 57.5 98.4001C60.2 94.8001 59.8 89.7001 56.5 86.6001C54.7 85.1001 51.2 84.3001 46.2 84.3001H34V102.4ZM0 232.2L26.3 230.5C26.9 234.8 28 238 29.8 240.3C32.6 243.9 36.7 245.8 42 245.8C45.9 245.8 49 244.9 51.1 243C53.1 241.4 54.3 239.1 54.3 236.6C54.3 234.2 53.2 231.9 51.3 230.4C49.3 228.6 44.6 226.8 37.1 225.2C25 222.5 16.3 218.9 11.2 214.3C6.1 210 3.2 203.7 3.4 197C3.4 192.4 4.8 187.8 7.4 184C10.4 179.7 14.5 176.3 19.4 174.4C24.7 172.1 32.1 170.9 41.4 170.9C52.8 170.9 61.5 173 67.5 177.3C73.5 181.6 77 188.3 78.1 197.6L52.1 199.1C51.4 195.1 50 192.2 47.7 190.3C45.5 188.4 42.4 187.5 38.5 187.6C35.3 187.6 32.9 188.3 31.3 189.7C29.7 190.9 28.8 192.7 28.9 194.7C28.9 196.2 29.7 197.6 30.9 198.5C32.2 199.7 35.3 200.8 40.2 201.8C52.3 204.4 60.9 207 66.2 209.7C71.5 212.4 75.3 215.7 77.6 219.6C80 223.6 81.2 228.2 81.2 232.8C81.2 238.4 79.5 243.9 76.4 248.6C73.1 253.5 68.5 257.3 63.1 259.6C57.4 262.1 50.2 263.4 41.6 263.4C26.4 263.4 15.9 260.5 10 254.6C4.1 248.6 0.8 241.2 0 232.2H0Z" fill="#EBDBB1"/>
    <path d="M133 225.2L157.2 232.5C155.9 238.6 153.2 244.4 149.5 249.5C146.1 254 141.6 257.5 136.5 259.8C131.3 262.1 124.7 263.3 116.7 263.3C107 263.3 99.0002 261.9 92.9002 259.1C86.7002 256.3 81.4002 251.3 76.9002 244.2C72.4002 237.1 70.2002 228 70.2002 216.9C70.2002 202.1 74.1002 190.7 82.0002 182.8C89.9002 174.9 101 170.9 115.4 170.9C126.7 170.9 135.5 173.2 142 177.7C148.4 182.3 153.2 189.3 156.4 198.7L132 204.1C131.4 202 130.5 199.9 129.3 198.1C127.8 196 125.9 194.4 123.6 193.2C121.3 192 118.7 191.5 116.1 191.5C109.8 191.5 105 194 101.7 199.1C99.2002 202.8 97.9002 208.7 97.9002 216.7C97.9002 226.6 99.4002 233.4 102.4 237.1C105.4 240.8 109.6 242.6 115.1 242.6C120.4 242.6 124.4 241.1 127.1 238.2C129.8 235.1 131.8 230.8 133 225.2ZM189.5 172.4H217.1V203.7H247.3V172.4H275.1V261.8H247.3V225.6H217.1V261.8H189.5V172.4V172.4Z" fill="#EBDBB1"/>
    <path d="M271.3 217.1C271.3 202.5 275.4 191.1 283.5 183C291.6 174.9 303 170.8 317.5 170.8C332.4 170.8 343.8 174.8 351.9 182.8C360 190.8 364 202 364 216.4C364 226.9 362.2 235.4 358.7 242.1C355.3 248.7 350 254.1 343.5 257.7C336.8 261.4 328.5 263.3 318.6 263.3C308.5 263.3 300.2 261.7 293.6 258.5C286.8 255.1 281.2 249.8 277.5 243.3C273.4 236.3 271.3 227.6 271.3 217.1ZM298.9 217.2C298.9 226.2 300.6 232.7 303.9 236.7C307.2 240.6 311.8 242.6 317.6 242.6C323.5 242.6 328.1 240.7 331.4 236.8C334.7 232.9 336.3 226 336.3 216C336.3 207.6 334.6 201.4 331.2 197.6C327.8 193.7 323.2 191.8 317.4 191.8C312.3 191.6 307.4 193.8 304 197.7C300.6 201.6 298.9 208.1 298.9 217.2V217.2ZM392.3 217.1C392.3 202.5 396.4 191.1 404.5 183C412.6 174.9 424 170.8 438.5 170.8C453.4 170.8 464.9 174.8 472.9 182.8C480.9 190.8 485 202 485 216.4C485 226.9 483.2 235.4 479.7 242.1C476.3 248.7 471 254.1 464.5 257.7C457.8 261.4 449.5 263.3 439.6 263.3C429.5 263.3 421.2 261.7 414.6 258.5C407.8 255.1 402.2 249.8 398.5 243.3C394.4 236.3 392.3 227.6 392.3 217.1V217.1ZM419.9 217.2C419.9 226.2 421.6 232.7 424.9 236.7C428.2 240.6 432.8 242.6 438.6 242.6C444.5 242.6 449.1 240.7 452.4 236.8C455.7 232.9 457.3 226 457.3 216C457.3 207.6 455.6 201.4 452.2 197.6C448.8 193.7 444.2 191.8 438.4 191.8C433.3 191.6 428.3 193.8 425 197.7C421.6 201.6 419.9 208.1 419.9 217.2V217.2Z" fill="#EBDBB1"/>
    <path d="M482.1 172.4H509.7V239.8H552.8V261.8H482V172.4H482.1Z" fill="#EBDBB1"/>
    <path d="M451.678 167.241C479.466 146.301 488.034 110.804 470.817 87.9568C453.6 65.1094 417.116 63.5632 389.329 84.5032C361.542 105.443 352.973 140.94 370.19 163.787C387.408 186.635 423.891 188.181 451.678 167.241Z" stroke="#EBDBB1" stroke-width="4" stroke-miterlimit="10"/>
    <path d="M451.678 167.241C479.466 146.301 488.034 110.804 470.817 87.9568C453.6 65.1094 417.116 63.5632 389.329 84.5032C361.542 105.443 352.973 140.94 370.19 163.787C387.408 186.635 423.891 188.181 451.678 167.241Z" stroke="#EBDBB1" stroke-width="4" stroke-miterlimit="10"/>
    <path d="M451.678 167.241C479.466 146.301 488.034 110.804 470.817 87.9568C453.6 65.1094 417.116 63.5632 389.329 84.5032C361.542 105.443 352.973 140.94 370.19 163.787C387.408 186.635 423.891 188.181 451.678 167.241Z" stroke="#EBDBB1" stroke-width="4" stroke-miterlimit="10"/>
    <path d="M451.678 167.241C479.466 146.301 488.034 110.804 470.817 87.9568C453.6 65.1094 417.116 63.5632 389.329 84.5032C361.542 105.443 352.973 140.94 370.19 163.787C387.408 186.635 423.891 188.181 451.678 167.241Z" stroke="#EBDBB1" stroke-width="4" stroke-miterlimit="10"/>
    <path d="M392.4 119.3L402.4 112.3L414.7 129.8C416.8 132.6 418.4 135.6 419.6 138.9C420.3 141.4 420.1 144.1 419.1 146.5C417.8 149.5 415.7 152 412.9 153.8C409.6 156.1 406.8 157.4 404.4 157.8C402.1 158.2 399.7 157.8 397.5 156.8C395.1 155.6 393 153.9 391.4 151.7L400 143.7C400.7 144.8 401.6 145.8 402.6 146.6C403.3 147.1 404.1 147.4 405 147.4C405.7 147.4 406.4 147.1 406.9 146.7C407.9 146.1 408.6 144.9 408.5 143.7C408.2 142 407.5 140.3 406.4 139L392.4 119.3V119.3ZM422.4 130.4L431.5 123.2C432.5 124.4 433.8 125.3 435.2 125.8C437.2 126.4 439.3 126 441 124.7C442.2 123.9 443.2 122.8 443.6 121.4C444.2 119.6 443.2 117.6 441.4 117C441.1 116.9 440.8 116.8 440.5 116.8C439.3 116.7 437.2 117.2 434.1 118.5C429 120.6 425 121.4 422 121.1C419.1 120.8 416.4 119.3 414.8 116.8C413.6 115.1 413 113.1 412.9 111.1C412.9 108.8 413.5 106.5 414.8 104.6C416.7 101.9 419 99.6 421.8 97.8C426 94.9 429.7 93.5 432.9 93.5C436.1 93.5 439.1 95 441.9 98.1L432.9 105.2C431.1 102.9 427.7 102.4 425.4 104.2L425.1 104.5C424.1 105.1 423.4 106 423 107.1C422.7 107.9 422.9 108.8 423.4 109.5C423.8 110 424.4 110.4 425.1 110.4C425.9 110.5 427.3 110.1 429.3 109.2C434.3 107.1 438.1 105.9 440.7 105.5C442.9 105.1 445.2 105.3 447.3 106.2C449.2 107 450.8 108.4 451.9 110.1C453.3 112.1 454.1 114.5 454.2 117C454.3 119.6 453.6 122.1 452.2 124.3C450.4 127 448.1 129.3 445.4 131.1C439.9 134.9 435.4 136.5 431.8 135.9C427.9 135.3 424.7 133.3 422.4 130.4V130.4Z" fill="#EBDBB1"/>
    <path d="M339.986 123.013L440.534 47.2447L502.942 130.063L402.394 205.832L339.986 123.013Z" stroke="#EBDBB1" stroke-width="4" stroke-miterlimit="10"/>
    <path d="M300 114.209L443.593 6.00013L542.955 137.853L399.362 246.062L300 114.209Z" stroke="#EBDBB1" stroke-width="4" stroke-miterlimit="10"/>
    </g>
    <defs>
    <clipPath id="clip0_62_58">
    <rect width="553" height="263" fill="white"/>
    </clipPath>
    </defs>
</svg>
