<svg width="1490" height="1298" viewBox="0 0 1490 1298" fill="none" xmlns="http://www.w3.org/2000/svg">
<path d="M836.598 185.781V214.932H723.365V185.781H836.598ZM732.447 96.7188V310H695.68V96.7188H732.447ZM864.869 96.7188V310H828.248V96.7188H864.869ZM992.018 96.7188V310H955.543V96.7188H992.018ZM1058.96 96.7188V126.016H889.186V96.7188H1058.96ZM1102.03 96.7188H1134.84L1196.51 261.221L1258.03 96.7188H1290.85L1209.4 310H1183.33L1102.03 96.7188ZM1087.09 96.7188H1118.29L1123.71 239.102V310H1087.09V96.7188ZM1274.59 96.7188H1305.93V310H1269.17V239.102L1274.59 96.7188ZM1483.18 280.85V310H1376.1V280.85H1483.18ZM1386.35 96.7188V310H1349.59V96.7188H1386.35Z" fill="#20180E"/>
<path d="M656.424 880.986V731.719H693.045V880.986C693.045 895.146 690.018 907.207 683.963 917.168C677.908 927.129 669.656 934.746 659.207 940.02C648.758 945.293 636.893 947.93 623.611 947.93C610.037 947.93 597.977 945.635 587.43 941.045C576.98 936.455 568.777 929.424 562.82 919.951C556.863 910.479 553.885 898.467 553.885 883.916H590.799C590.799 892.314 592.117 899.102 594.754 904.277C597.488 909.355 601.297 913.066 606.18 915.41C611.16 917.656 616.971 918.779 623.611 918.779C629.959 918.779 635.574 917.363 640.457 914.531C645.438 911.602 649.344 907.354 652.176 901.787C655.008 896.123 656.424 889.189 656.424 880.986ZM847.586 890.068C847.586 885.674 846.902 881.768 845.535 878.35C844.266 874.932 841.971 871.807 838.65 868.975C835.33 866.143 830.643 863.408 824.588 860.771C818.631 858.037 811.014 855.254 801.736 852.422C791.58 849.297 782.205 845.83 773.611 842.021C765.115 838.115 757.693 833.623 751.346 828.545C744.998 823.369 740.066 817.461 736.551 810.82C733.035 804.082 731.277 796.318 731.277 787.529C731.277 778.838 733.084 770.928 736.697 763.799C740.408 756.67 745.633 750.518 752.371 745.342C759.207 740.068 767.264 736.016 776.541 733.184C785.818 730.254 796.072 728.789 807.303 728.789C823.123 728.789 836.746 731.719 848.172 737.578C859.695 743.438 868.533 751.299 874.686 761.162C880.936 771.025 884.061 781.914 884.061 793.828H847.586C847.586 786.797 846.072 780.596 843.045 775.225C840.115 769.756 835.623 765.459 829.568 762.334C823.611 759.209 816.043 757.646 806.863 757.646C798.172 757.646 790.945 758.965 785.184 761.602C779.422 764.238 775.125 767.803 772.293 772.295C769.461 776.787 768.045 781.865 768.045 787.529C768.045 791.533 768.973 795.195 770.828 798.516C772.684 801.738 775.516 804.766 779.324 807.598C783.133 810.332 787.918 812.92 793.68 815.361C799.441 817.803 806.229 820.146 814.041 822.393C825.857 825.908 836.16 829.814 844.949 834.111C853.738 838.311 861.062 843.096 866.922 848.467C872.781 853.838 877.176 859.941 880.105 866.777C883.035 873.516 884.5 881.182 884.5 889.775C884.5 898.76 882.693 906.865 879.08 914.092C875.467 921.221 870.291 927.324 863.553 932.402C856.912 937.383 848.904 941.24 839.529 943.975C830.252 946.611 819.9 947.93 808.475 947.93C798.221 947.93 788.113 946.562 778.152 943.828C768.289 941.094 759.305 936.943 751.199 931.377C743.094 925.713 736.648 918.682 731.863 910.283C727.078 901.787 724.686 891.875 724.686 880.547H761.453C761.453 887.48 762.625 893.389 764.969 898.271C767.41 903.154 770.779 907.158 775.076 910.283C779.373 913.311 784.354 915.557 790.018 917.021C795.779 918.486 801.932 919.219 808.475 919.219C817.068 919.219 824.246 917.998 830.008 915.557C835.867 913.115 840.262 909.697 843.191 905.303C846.121 900.908 847.586 895.83 847.586 890.068Z" fill="#20180E"/>
<path d="M483.449 654.016V735.461C480.422 739.465 475.686 743.859 469.24 748.645C462.893 753.332 454.445 757.385 443.898 760.803C433.352 764.221 420.217 765.93 404.494 765.93C391.115 765.93 378.859 763.684 367.727 759.191C356.594 754.602 346.975 747.912 338.869 739.123C330.861 730.334 324.66 719.641 320.266 707.043C315.871 694.348 313.674 679.895 313.674 663.684V648.889C313.674 632.775 315.676 618.42 319.68 605.822C323.781 593.127 329.641 582.385 337.258 573.596C344.875 564.807 354.055 558.166 364.797 553.674C375.637 549.084 387.893 546.789 401.564 546.789C419.045 546.789 433.498 549.719 444.924 555.578C456.447 561.34 465.334 569.348 471.584 579.602C477.834 589.855 481.789 601.574 483.449 614.758H447.414C446.242 607.336 443.947 600.695 440.529 594.836C437.209 588.977 432.424 584.387 426.174 581.066C420.021 577.648 412.014 575.939 402.15 575.939C393.654 575.939 386.184 577.551 379.738 580.773C373.293 583.996 367.922 588.732 363.625 594.982C359.426 601.232 356.252 608.85 354.104 617.834C351.955 626.818 350.881 637.072 350.881 648.596V663.684C350.881 675.402 352.102 685.803 354.543 694.885C357.082 703.967 360.695 711.633 365.383 717.883C370.168 724.133 375.979 728.869 382.814 732.092C389.65 735.217 397.365 736.779 405.959 736.779C414.357 736.779 421.242 736.096 426.613 734.729C431.984 733.264 436.232 731.555 439.357 729.602C442.58 727.551 445.07 725.598 446.828 723.742V681.408H402.443V654.016H483.449ZM563.43 549.719V763H526.662V549.719H563.43ZM692.482 549.719V763H656.008V549.719H692.482ZM759.426 549.719V579.016H589.65V549.719H759.426Z" fill="#20180E"/>
<path d="M828.656 509.566H865.277C864.105 523.531 860.199 535.982 853.559 546.92C846.918 557.76 837.592 566.305 825.58 572.555C813.568 578.805 798.969 581.93 781.781 581.93C768.598 581.93 756.732 579.586 746.186 574.898C735.639 570.113 726.605 563.375 719.086 554.684C711.566 545.895 705.805 535.299 701.801 522.896C697.895 510.494 695.941 496.627 695.941 481.295V463.57C695.941 448.238 697.943 434.371 701.947 421.969C706.049 409.566 711.908 398.971 719.525 390.182C727.143 381.295 736.273 374.508 746.918 369.82C757.66 365.133 769.721 362.789 783.1 362.789C800.092 362.789 814.447 365.914 826.166 372.164C837.885 378.414 846.967 387.057 853.412 398.092C859.955 409.127 863.959 421.773 865.424 436.031H828.803C827.826 426.852 825.678 418.99 822.357 412.447C819.135 405.904 814.35 400.924 808.002 397.506C801.654 393.99 793.354 392.232 783.1 392.232C774.701 392.232 767.377 393.795 761.127 396.92C754.877 400.045 749.652 404.635 745.453 410.689C741.254 416.744 738.08 424.215 735.932 433.102C733.881 441.891 732.855 451.949 732.855 463.277V481.295C732.855 492.037 733.783 501.803 735.639 510.592C737.592 519.283 740.521 526.754 744.428 533.004C748.432 539.254 753.51 544.088 759.662 547.506C765.814 550.924 773.188 552.633 781.781 552.633C792.23 552.633 800.678 550.973 807.123 547.652C813.666 544.332 818.598 539.498 821.918 533.15C825.336 526.705 827.582 518.844 828.656 509.566ZM1010.88 524.068C1010.88 519.674 1010.2 515.768 1008.83 512.35C1007.56 508.932 1005.27 505.807 1001.95 502.975C998.627 500.143 993.939 497.408 987.885 494.771C981.928 492.037 974.311 489.254 965.033 486.422C954.877 483.297 945.502 479.83 936.908 476.021C928.412 472.115 920.99 467.623 914.643 462.545C908.295 457.369 903.363 451.461 899.848 444.82C896.332 438.082 894.574 430.318 894.574 421.529C894.574 412.838 896.381 404.928 899.994 397.799C903.705 390.67 908.93 384.518 915.668 379.342C922.504 374.068 930.561 370.016 939.838 367.184C949.115 364.254 959.369 362.789 970.6 362.789C986.42 362.789 1000.04 365.719 1011.47 371.578C1022.99 377.438 1031.83 385.299 1037.98 395.162C1044.23 405.025 1047.36 415.914 1047.36 427.828H1010.88C1010.88 420.797 1009.37 414.596 1006.34 409.225C1003.41 403.756 998.92 399.459 992.865 396.334C986.908 393.209 979.34 391.646 970.16 391.646C961.469 391.646 954.242 392.965 948.48 395.602C942.719 398.238 938.422 401.803 935.59 406.295C932.758 410.787 931.342 415.865 931.342 421.529C931.342 425.533 932.27 429.195 934.125 432.516C935.98 435.738 938.812 438.766 942.621 441.598C946.43 444.332 951.215 446.92 956.977 449.361C962.738 451.803 969.525 454.146 977.338 456.393C989.154 459.908 999.457 463.814 1008.25 468.111C1017.04 472.311 1024.36 477.096 1030.22 482.467C1036.08 487.838 1040.47 493.941 1043.4 500.777C1046.33 507.516 1047.8 515.182 1047.8 523.775C1047.8 532.76 1045.99 540.865 1042.38 548.092C1038.76 555.221 1033.59 561.324 1026.85 566.402C1020.21 571.383 1012.2 575.24 1002.83 577.975C993.549 580.611 983.197 581.93 971.771 581.93C961.518 581.93 951.41 580.562 941.449 577.828C931.586 575.094 922.602 570.943 914.496 565.377C906.391 559.713 899.945 552.682 895.16 544.283C890.375 535.787 887.982 525.875 887.982 514.547H924.75C924.75 521.48 925.922 527.389 928.266 532.271C930.707 537.154 934.076 541.158 938.373 544.283C942.67 547.311 947.65 549.557 953.314 551.021C959.076 552.486 965.229 553.219 971.771 553.219C980.365 553.219 987.543 551.998 993.305 549.557C999.164 547.115 1003.56 543.697 1006.49 539.303C1009.42 534.908 1010.88 529.83 1010.88 524.068ZM1192.52 524.068C1192.52 519.674 1191.84 515.768 1190.47 512.35C1189.2 508.932 1186.91 505.807 1183.59 502.975C1180.27 500.143 1175.58 497.408 1169.53 494.771C1163.57 492.037 1155.95 489.254 1146.67 486.422C1136.52 483.297 1127.14 479.83 1118.55 476.021C1110.05 472.115 1102.63 467.623 1096.28 462.545C1089.94 457.369 1085 451.461 1081.49 444.82C1077.97 438.082 1076.21 430.318 1076.21 421.529C1076.21 412.838 1078.02 404.928 1081.63 397.799C1085.35 390.67 1090.57 384.518 1097.31 379.342C1104.14 374.068 1112.2 370.016 1121.48 367.184C1130.76 364.254 1141.01 362.789 1152.24 362.789C1168.06 362.789 1181.68 365.719 1193.11 371.578C1204.63 377.438 1213.47 385.299 1219.62 395.162C1225.87 405.025 1229 415.914 1229 427.828H1192.52C1192.52 420.797 1191.01 414.596 1187.98 409.225C1185.05 403.756 1180.56 399.459 1174.51 396.334C1168.55 393.209 1160.98 391.646 1151.8 391.646C1143.11 391.646 1135.88 392.965 1130.12 395.602C1124.36 398.238 1120.06 401.803 1117.23 406.295C1114.4 410.787 1112.98 415.865 1112.98 421.529C1112.98 425.533 1113.91 429.195 1115.77 432.516C1117.62 435.738 1120.45 438.766 1124.26 441.598C1128.07 444.332 1132.86 446.92 1138.62 449.361C1144.38 451.803 1151.17 454.146 1158.98 456.393C1170.79 459.908 1181.1 463.814 1189.89 468.111C1198.68 472.311 1206 477.096 1211.86 482.467C1217.72 487.838 1222.11 493.941 1225.04 500.777C1227.97 507.516 1229.44 515.182 1229.44 523.775C1229.44 532.76 1227.63 540.865 1224.02 548.092C1220.4 555.221 1215.23 561.324 1208.49 566.402C1201.85 571.383 1193.84 575.24 1184.47 577.975C1175.19 580.611 1164.84 581.93 1153.41 581.93C1143.16 581.93 1133.05 580.562 1123.09 577.828C1113.23 575.094 1104.24 570.943 1096.14 565.377C1088.03 559.713 1081.59 552.682 1076.8 544.283C1072.02 535.787 1069.62 525.875 1069.62 514.547H1106.39C1106.39 521.48 1107.56 527.389 1109.91 532.271C1112.35 537.154 1115.72 541.158 1120.01 544.283C1124.31 547.311 1129.29 549.557 1134.96 551.021C1140.72 552.486 1146.87 553.219 1153.41 553.219C1162.01 553.219 1169.18 551.998 1174.95 549.557C1180.8 547.115 1185.2 543.697 1188.13 539.303C1191.06 534.908 1192.52 529.83 1192.52 524.068Z" fill="#20180E"/>
<path d="M133.887 405.068C133.887 400.674 133.203 396.768 131.836 393.35C130.566 389.932 128.271 386.807 124.951 383.975C121.631 381.143 116.943 378.408 110.889 375.771C104.932 373.037 97.3145 370.254 88.0371 367.422C77.8809 364.297 68.5059 360.83 59.9121 357.021C51.416 353.115 43.9941 348.623 37.6465 343.545C31.2988 338.369 26.3672 332.461 22.8516 325.82C19.3359 319.082 17.5781 311.318 17.5781 302.529C17.5781 293.838 19.3848 285.928 22.998 278.799C26.709 271.67 31.9336 265.518 38.6719 260.342C45.5078 255.068 53.5645 251.016 62.8418 248.184C72.1191 245.254 82.373 243.789 93.6035 243.789C109.424 243.789 123.047 246.719 134.473 252.578C145.996 258.438 154.834 266.299 160.986 276.162C167.236 286.025 170.361 296.914 170.361 308.828H133.887C133.887 301.797 132.373 295.596 129.346 290.225C126.416 284.756 121.924 280.459 115.869 277.334C109.912 274.209 102.344 272.646 93.1641 272.646C84.4727 272.646 77.2461 273.965 71.4844 276.602C65.7227 279.238 61.4258 282.803 58.5938 287.295C55.7617 291.787 54.3457 296.865 54.3457 302.529C54.3457 306.533 55.2734 310.195 57.1289 313.516C58.9844 316.738 61.8164 319.766 65.625 322.598C69.4336 325.332 74.2188 327.92 79.9805 330.361C85.7422 332.803 92.5293 335.146 100.342 337.393C112.158 340.908 122.461 344.814 131.25 349.111C140.039 353.311 147.363 358.096 153.223 363.467C159.082 368.838 163.477 374.941 166.406 381.777C169.336 388.516 170.801 396.182 170.801 404.775C170.801 413.76 168.994 421.865 165.381 429.092C161.768 436.221 156.592 442.324 149.854 447.402C143.213 452.383 135.205 456.24 125.83 458.975C116.553 461.611 106.201 462.93 94.7754 462.93C84.5215 462.93 74.4141 461.562 64.4531 458.828C54.5898 456.094 45.6055 451.943 37.5 446.377C29.3945 440.713 22.9492 433.682 18.1641 425.283C13.3789 416.787 10.9863 406.875 10.9863 395.547H47.7539C47.7539 402.48 48.9258 408.389 51.2695 413.271C53.7109 418.154 57.0801 422.158 61.377 425.283C65.6738 428.311 70.6543 430.557 76.3184 432.021C82.0801 433.486 88.2324 434.219 94.7754 434.219C103.369 434.219 110.547 432.998 116.309 430.557C122.168 428.115 126.562 424.697 129.492 420.303C132.422 415.908 133.887 410.83 133.887 405.068ZM286.377 275.137L222.656 460H184.131L264.404 246.719H289.014L286.377 275.137ZM339.697 460L275.83 275.137L273.047 246.719H297.803L378.369 460H339.697ZM336.621 380.898V410.049H220.605V380.898H336.621ZM514.453 405.068C514.453 400.674 513.77 396.768 512.402 393.35C511.133 389.932 508.838 386.807 505.518 383.975C502.197 381.143 497.51 378.408 491.455 375.771C485.498 373.037 477.881 370.254 468.604 367.422C458.447 364.297 449.072 360.83 440.479 357.021C431.982 353.115 424.561 348.623 418.213 343.545C411.865 338.369 406.934 332.461 403.418 325.82C399.902 319.082 398.145 311.318 398.145 302.529C398.145 293.838 399.951 285.928 403.564 278.799C407.275 271.67 412.5 265.518 419.238 260.342C426.074 255.068 434.131 251.016 443.408 248.184C452.686 245.254 462.939 243.789 474.17 243.789C489.99 243.789 503.613 246.719 515.039 252.578C526.562 258.438 535.4 266.299 541.553 276.162C547.803 286.025 550.928 296.914 550.928 308.828H514.453C514.453 301.797 512.939 295.596 509.912 290.225C506.982 284.756 502.49 280.459 496.436 277.334C490.479 274.209 482.91 272.646 473.73 272.646C465.039 272.646 457.812 273.965 452.051 276.602C446.289 279.238 441.992 282.803 439.16 287.295C436.328 291.787 434.912 296.865 434.912 302.529C434.912 306.533 435.84 310.195 437.695 313.516C439.551 316.738 442.383 319.766 446.191 322.598C450 325.332 454.785 327.92 460.547 330.361C466.309 332.803 473.096 335.146 480.908 337.393C492.725 340.908 503.027 344.814 511.816 349.111C520.605 353.311 527.93 358.096 533.789 363.467C539.648 368.838 544.043 374.941 546.973 381.777C549.902 388.516 551.367 396.182 551.367 404.775C551.367 413.76 549.561 421.865 545.947 429.092C542.334 436.221 537.158 442.324 530.42 447.402C523.779 452.383 515.771 456.24 506.396 458.975C497.119 461.611 486.768 462.93 475.342 462.93C465.088 462.93 454.98 461.562 445.02 458.828C435.156 456.094 426.172 451.943 418.066 446.377C409.961 440.713 403.516 433.682 398.73 425.283C393.945 416.787 391.553 406.875 391.553 395.547H428.32C428.32 402.48 429.492 408.389 431.836 413.271C434.277 418.154 437.646 422.158 441.943 425.283C446.24 428.311 451.221 430.557 456.885 432.021C462.646 433.486 468.799 434.219 475.342 434.219C483.936 434.219 491.113 432.998 496.875 430.557C502.734 428.115 507.129 424.697 510.059 420.303C512.988 415.908 514.453 410.83 514.453 405.068ZM696.094 405.068C696.094 400.674 695.41 396.768 694.043 393.35C692.773 389.932 690.479 386.807 687.158 383.975C683.838 381.143 679.15 378.408 673.096 375.771C667.139 373.037 659.521 370.254 650.244 367.422C640.088 364.297 630.713 360.83 622.119 357.021C613.623 353.115 606.201 348.623 599.854 343.545C593.506 338.369 588.574 332.461 585.059 325.82C581.543 319.082 579.785 311.318 579.785 302.529C579.785 293.838 581.592 285.928 585.205 278.799C588.916 271.67 594.141 265.518 600.879 260.342C607.715 255.068 615.771 251.016 625.049 248.184C634.326 245.254 644.58 243.789 655.811 243.789C671.631 243.789 685.254 246.719 696.68 252.578C708.203 258.438 717.041 266.299 723.193 276.162C729.443 286.025 732.568 296.914 732.568 308.828H696.094C696.094 301.797 694.58 295.596 691.553 290.225C688.623 284.756 684.131 280.459 678.076 277.334C672.119 274.209 664.551 272.646 655.371 272.646C646.68 272.646 639.453 273.965 633.691 276.602C627.93 279.238 623.633 282.803 620.801 287.295C617.969 291.787 616.553 296.865 616.553 302.529C616.553 306.533 617.48 310.195 619.336 313.516C621.191 316.738 624.023 319.766 627.832 322.598C631.641 325.332 636.426 327.92 642.188 330.361C647.949 332.803 654.736 335.146 662.549 337.393C674.365 340.908 684.668 344.814 693.457 349.111C702.246 353.311 709.57 358.096 715.43 363.467C721.289 368.838 725.684 374.941 728.613 381.777C731.543 388.516 733.008 396.182 733.008 404.775C733.008 413.76 731.201 421.865 727.588 429.092C723.975 436.221 718.799 442.324 712.061 447.402C705.42 452.383 697.412 456.24 688.037 458.975C678.76 461.611 668.408 462.93 656.982 462.93C646.729 462.93 636.621 461.562 626.66 458.828C616.797 456.094 607.812 451.943 599.707 446.377C591.602 440.713 585.156 433.682 580.371 425.283C575.586 416.787 573.193 406.875 573.193 395.547H609.961C609.961 402.48 611.133 408.389 613.477 413.271C615.918 418.154 619.287 422.158 623.584 425.283C627.881 428.311 632.861 430.557 638.525 432.021C644.287 433.486 650.439 434.219 656.982 434.219C665.576 434.219 672.754 432.998 678.516 430.557C684.375 428.115 688.77 424.697 691.699 420.303C694.629 415.908 696.094 410.83 696.094 405.068Z" fill="#20180E"/>
<rect x="541.001" y="1.95448" width="864.244" height="1080.8" transform="rotate(17.8763 541.001 1.95448)" stroke="#20180E" stroke-width="2"/>
</svg>
